<?xml version="1.0" encoding="UTF-8"?>
<svg width="15px" height="17px" viewBox="0 0 15 17" version="1.1" xmlns="http://www.w3.org/2000/svg" xmlns:xlink="http://www.w3.org/1999/xlink">
    <!-- Generator: Sketch 60 (88103) - https://sketch.com -->
    <title>活动概况</title>
    <desc>Created with Sketch.</desc>
    <g id="页面-1" stroke="none" stroke-width="1" fill="none" fill-rule="evenodd">
        <g id="工作台_驾驶舱（支行）" transform="translate(-605.000000, -2964.000000)" fill="#D53829" fill-rule="nonzero">
            <path d="M615.761468,2968.60092 L615.761468,2967.66514 C615.761468,2967.57936 615.691284,2967.50917 615.605505,2967.50917 L608.119266,2967.50917 C608.033486,2967.50917 607.963303,2967.57936 607.963303,2967.66514 L607.963303,2968.60092 C607.963303,2968.6867 608.033486,2968.75688 608.119266,2968.75688 L615.605505,2968.75688 C615.691284,2968.75688 615.761468,2968.6867 615.761468,2968.60092 Z M608.119266,2970.31651 C608.033486,2970.31651 607.963303,2970.3867 607.963303,2970.47248 L607.963303,2971.40826 C607.963303,2971.49404 608.033486,2971.56422 608.119266,2971.56422 L611.706422,2971.56422 C611.792202,2971.56422 611.862385,2971.49404 611.862385,2971.40826 L611.862385,2970.47248 C611.862385,2970.3867 611.792202,2970.31651 611.706422,2970.31651 L608.119266,2970.31651 Z M615.449541,2972.57798 C613.123739,2972.57798 611.238532,2974.46319 611.238532,2976.78899 C611.238532,2979.11479 613.123739,2981 615.449541,2981 C617.775344,2981 619.66055,2979.11479 619.66055,2976.78899 C619.66055,2974.46319 617.775344,2972.57798 615.449541,2972.57798 Z M617.545298,2978.88475 C616.98578,2979.44427 616.241055,2979.75229 615.449541,2979.75229 C614.658028,2979.75229 613.913303,2979.44427 613.353784,2978.88475 C612.794266,2978.32523 612.486239,2977.5805 612.486239,2976.78899 C612.486239,2975.99748 612.794266,2975.25275 613.353784,2974.69323 C613.913303,2974.13372 614.658028,2973.82569 615.449541,2973.82569 C616.241055,2973.82569 616.98578,2974.13372 617.545298,2974.69323 C618.104817,2975.25275 618.412844,2975.99748 618.412844,2976.78899 C618.412844,2977.5805 618.104817,2978.32523 617.545298,2978.88475 Z M617.184633,2975.30734 L616.320986,2975.30734 C616.270298,2975.30734 616.223509,2975.33073 616.194266,2975.37167 L614.956307,2977.08337 L614.505963,2976.46147 C614.47672,2976.42053 614.429931,2976.39713 614.379243,2976.39713 L613.519495,2976.39713 C613.392775,2976.39713 613.318693,2976.5414 613.392775,2976.64472 L614.831537,2978.63521 C614.893922,2978.72099 615.020642,2978.72099 615.083028,2978.63521 L617.309404,2975.55493 C617.385436,2975.45161 617.311353,2975.30734 617.184633,2975.30734 Z M610.926606,2979.12844 L606.40367,2979.12844 L606.40367,2965.40367 L617.321101,2965.40367 L617.321101,2972.11009 C617.321101,2972.19587 617.391284,2972.26606 617.477064,2972.26606 L618.568807,2972.26606 C618.654587,2972.26606 618.724771,2972.19587 618.724771,2972.11009 L618.724771,2964.62385 C618.724771,2964.27878 618.445986,2964 618.100917,2964 L605.623853,2964 C605.278784,2964 605,2964.27878 605,2964.62385 L605,2979.90826 C605,2980.25333 605.278784,2980.53211 605.623853,2980.53211 L610.926606,2980.53211 C611.012385,2980.53211 611.082569,2980.46193 611.082569,2980.37615 L611.082569,2979.2844 C611.082569,2979.19862 611.012385,2979.12844 610.926606,2979.12844 Z" id="活动概况"></path>
        </g>
    </g>
</svg>