<?xml version="1.0" encoding="UTF-8"?>
<svg width="19px" height="17px" viewBox="0 0 19 17" version="1.1" xmlns="http://www.w3.org/2000/svg" xmlns:xlink="http://www.w3.org/1999/xlink">
    <!-- Generator: Sketch 60 (88103) - https://sketch.com -->
    <title>Customer management</title>
    <desc>Created with Sketch.</desc>
    <g id="风格2" stroke="none" stroke-width="1" fill="none" fill-rule="evenodd">
        <g id="工作台_驾驶舱（支行）" transform="translate(-245.000000, -595.000000)" fill-rule="nonzero">
            <g id="Customer-management" transform="translate(243.000000, 592.000000)">
                <rect id="矩形" fill="#000000" opacity="0" x="0" y="0" width="23" height="23"></rect>
                <path d="M13.86325,3.83333135 C16.4291875,3.83333135 18.5097292,5.91339584 18.5097292,8.4798125 C18.5097292,10.1089792 17.6711875,11.5416875 16.4028333,12.3716042 L20.1930417,16.7938333 C20.5582841,17.2200912 20.6419958,17.8199583 20.4074037,18.3299234 C20.1728115,18.8398885 19.6628358,19.1666497 19.1015,19.1666667 L16.813,19.1671458 C17.0650417,18.7311042 17.1340417,18.2126458 17.0094583,17.7296458 L19.1015,17.7291667 L14.245625,12.0639792 L15.6155625,11.1684167 C16.7971609,10.3984889 17.3375819,8.94733629 16.947422,7.59207294 C16.5572621,6.23680959 15.3279801,5.29512786 13.917875,5.2713125 C13.5738132,4.77980801 13.153579,4.34631012 12.673,3.98714584 C13.0614377,3.88466303 13.4615207,3.83296148 13.86325,3.83333135 Z M12.4894792,13.10425 L15.6519792,16.7938333 C16.0173347,17.2202229 16.1009758,17.8203144 15.8661411,18.3303589 C15.6313064,18.8404034 15.1209884,19.1670242 14.5594792,19.166667 L4.0839375,19.166667 C3.52260171,19.166667 3.01262601,18.8398885 2.77803383,18.3299234 C2.54344166,17.8199583 2.62715336,17.2200912 2.99239584,16.7938333 L6.15489584,13.10425 C6.55979168,13.3821667 7.00302084,13.6083333 7.475,13.7731667 L4.0839375,17.7291667 L14.5599583,17.7291667 L11.1684167,13.7731667 C11.640875,13.6083333 12.0841042,13.3826458 12.4894792,13.10425 L12.4894792,13.10425 Z M9.3221875,3.83333334 C11.888125,3.83333334 13.9686667,5.91339584 13.9686667,8.4798125 C13.9686667,11.04575 11.888125,13.1262917 9.3221875,13.1262917 C6.75577084,13.1262917 4.67570834,11.04575 4.67570834,8.4798125 C4.67570834,5.91339584 6.75577084,3.83333334 9.3221875,3.83333334 Z M9.3221875,5.27083334 C8.17572966,5.27083334 7.11635891,5.88246129 6.54312999,6.87532291 C5.96990106,7.86818452 5.96990106,9.09144048 6.54312999,10.0843021 C7.11635891,11.0771637 8.17572966,11.6887917 9.3221875,11.6887917 C11.0944578,11.6887917 12.5311667,10.2520828 12.5311667,8.4798125 C12.5311667,6.70754225 11.0944578,5.27083334 9.3221875,5.27083334 Z" id="形状" fill="#D53829"></path>
            </g>
        </g>
    </g>
</svg>