<?xml version="1.0" encoding="UTF-8"?>
<svg width="20px" height="19px" viewBox="0 0 20 19" version="1.1" xmlns="http://www.w3.org/2000/svg" xmlns:xlink="http://www.w3.org/1999/xlink">
    <!-- Generator: Sketch 60 (88103) - https://sketch.com -->
    <title>area chart</title>
    <desc>Created with Sketch.</desc>
    <g id="页面-1" stroke="none" stroke-width="1" fill="none" fill-rule="evenodd">
        <g id="工作台_驾驶舱（支行）" transform="translate(-248.000000, -2505.000000)" fill-rule="nonzero">
            <g id="area-chart" transform="translate(246.000000, 2503.000000)">
                <rect id="矩形" fill="#000000" opacity="0" x="0" y="0" width="16" height="16"></rect>
                <path d="M21.7916667,18.9583333 L3.875,18.9583333 L3.875,2.70833333 C3.875,2.59375 3.78125,2.5 3.66666667,2.5 L2.20833333,2.5 C2.09375,2.5 2,2.59375 2,2.70833333 L2,20.625 C2,20.7395833 2.09375,20.8333333 2.20833333,20.8333333 L21.7916667,20.8333333 C21.90625,20.8333333 22,20.7395833 22,20.625 L22,19.1666667 C22,19.0520833 21.90625,18.9583333 21.7916667,18.9583333 Z M5.75,17.2916667 L19.7083333,17.2916667 C19.8229167,17.2916667 19.9166667,17.1979167 19.9166667,17.0833333 L19.9166667,5.72916667 C19.9166667,5.54166667 19.6901042,5.45052083 19.5598958,5.58072917 L14.0833333,11.0572917 L10.8177083,7.828125 C10.7369792,7.74739583 10.6041667,7.74739583 10.5234375,7.828125 L5.6015625,12.765625 C5.5625,12.8046875 5.54166667,12.8567708 5.54166667,12.9114583 L5.54166667,17.0833333 C5.54166667,17.1979167 5.63541667,17.2916667 5.75,17.2916667 Z" id="形状" fill="#D53829"></path>
            </g>
        </g>
    </g>
</svg>