<?xml version="1.0" encoding="UTF-8"?>
<svg width="15px" height="17px" viewBox="0 0 15 17" version="1.1" xmlns="http://www.w3.org/2000/svg" xmlns:xlink="http://www.w3.org/1999/xlink">
    <!-- Generator: Sketch 60 (88103) - https://sketch.com -->
    <title>渠道签约客户数变化趋势</title>
    <desc>Created with Sketch.</desc>
    <g id="页面-1" stroke="none" stroke-width="1" fill="none" fill-rule="evenodd">
        <g id="工作台_驾驶舱（支行）" transform="translate(-248.000000, -1973.000000)" fill-rule="nonzero">
            <g id="渠道签约客户数变化趋势" transform="translate(244.000000, 1970.000000)">
                <rect id="矩形" fill="#000000" opacity="0" x="0" y="0" width="23" height="23"></rect>
                <path d="M6.22916666,6.70833334 L6.22916666,17.7291667 L16.0520833,17.7291667 L16.0520833,19.1666667 L6.94791666,19.1666667 C5.79654784,19.1666667 4.84830477,18.2620904 4.7940625,17.112 L4.79166666,17.0104167 L4.79166666,6.70833334 L6.22916666,6.70833334 Z M16.8484583,3.838125 C17.6423677,3.838125 18.2859583,4.48171567 18.2859583,5.275625 L18.2859583,15.4109583 C18.2859583,16.2048677 17.6423677,16.8484583 16.8484583,16.8484583 L7.18270834,16.8484583 L7.18270834,5.275625 C7.18270834,4.48171567 7.82629901,3.838125 8.62020834,3.838125 L16.8484583,3.838125 L16.8484583,3.838125 Z M16.8484583,5.275625 L8.62020834,5.275625 L8.62020834,15.4109583 L16.8484583,15.4109583 L16.8484583,5.275625 L16.8484583,5.275625 Z M14.375,6.70833334 L14.375,8.14583334 L10.0625,8.14583334 L10.0625,6.70833334 L14.375,6.70833334 Z" id="形状" fill="#D53829"></path>
            </g>
        </g>
    </g>
</svg>