<?xml version="1.0" encoding="UTF-8"?>
<svg width="17px" height="14px" viewBox="0 0 17 14" version="1.1" xmlns="http://www.w3.org/2000/svg" xmlns:xlink="http://www.w3.org/1999/xlink">
    <!-- Generator: Sketch 60 (88103) - https://sketch.com -->
    <title>nav-list</title>
    <desc>Created with Sketch.</desc>
    <g id="页面-1" stroke="none" stroke-width="1" fill="none" fill-rule="evenodd">
        <g id="工作台_驾驶舱（支行）" transform="translate(-251.000000, -964.000000)" fill-rule="nonzero">
            <g id="nav-list" transform="translate(248.000000, 959.000000)">
                <rect id="矩形" fill="#000000" opacity="0" x="0" y="0" width="23" height="23"></rect>
                <path d="M17.7291667,12.9375 L17.7291667,14.8541667 L19.6458333,14.8541667 L19.6458333,16.2916667 L17.7291667,16.2916667 L17.7291667,18.2083333 L16.2916667,18.2083333 L16.2916667,16.2916667 L14.375,16.2916667 L14.375,14.8541667 L16.2916667,14.8541667 L16.2916667,12.9375 L17.7291667,12.9375 Z M5.75,16.4886042 L5.75,17.9261042 L3.83333334,17.9261042 L3.83333334,16.4886042 L5.75,16.4886042 Z M13.4166667,16.4886042 L13.4166667,17.9261042 L6.70833334,17.9261042 L6.70833334,16.4886042 L13.4166667,16.4886042 Z M5.75,11.0768958 L5.75,12.5143958 L3.83333334,12.5143958 L3.83333334,11.0768958 L5.75,11.0768958 L5.75,11.0768958 Z M15.3333333,11.0768958 L15.3333333,12.5143958 L6.70833334,12.5143958 L6.70833334,11.0768958 L15.3333333,11.0768958 L15.3333333,11.0768958 Z M5.75,5.6651875 L5.75,7.1026875 L3.83333334,7.1026875 L3.83333334,5.6651875 L5.75,5.6651875 Z M19.1666667,5.6651875 L19.1666667,7.1026875 L6.70833334,7.1026875 L6.70833334,5.6651875 L19.1666667,5.6651875 Z" id="形状" fill="#D53829"></path>
            </g>
        </g>
    </g>
</svg>