<?xml version="1.0" encoding="UTF-8"?>
<svg width="16px" height="16px" viewBox="0 0 16 16" version="1.1" xmlns="http://www.w3.org/2000/svg" xmlns:xlink="http://www.w3.org/1999/xlink">
    <!-- Generator: Sketch 60 (88103) - https://sketch.com -->
    <title>account book</title>
    <desc>Created with Sketch.</desc>
    <g id="页面-1" stroke="none" stroke-width="1" fill="none" fill-rule="evenodd">
        <g id="工作台_驾驶舱（支行）" transform="translate(-1051.000000, -2503.000000)" fill-rule="nonzero">
            <g id="account-book" transform="translate(1049.000000, 2501.000000)">
                <rect id="矩形" fill="#000000" opacity="0" x="0" y="0" width="20" height="20"></rect>
                <path d="M17.1875,3.59375 L13.90625,3.59375 L13.90625,2.34375 C13.90625,2.2578125 13.8359375,2.1875 13.75,2.1875 L12.65625,2.1875 C12.5703125,2.1875 12.5,2.2578125 12.5,2.34375 L12.5,3.59375 L7.5,3.59375 L7.5,2.34375 C7.5,2.2578125 7.4296875,2.1875 7.34375,2.1875 L6.25,2.1875 C6.1640625,2.1875 6.09375,2.2578125 6.09375,2.34375 L6.09375,3.59375 L2.8125,3.59375 C2.46679688,3.59375 2.1875,3.87304688 2.1875,4.21875 L2.1875,17.1875 C2.1875,17.5332031 2.46679688,17.8125 2.8125,17.8125 L17.1875,17.8125 C17.5332031,17.8125 17.8125,17.5332031 17.8125,17.1875 L17.8125,4.21875 C17.8125,3.87304688 17.5332031,3.59375 17.1875,3.59375 Z M16.40625,16.40625 L3.59375,16.40625 L3.59375,5 L6.09375,5 L6.09375,5.9375 C6.09375,6.0234375 6.1640625,6.09375 6.25,6.09375 L7.34375,6.09375 C7.4296875,6.09375 7.5,6.0234375 7.5,5.9375 L7.5,5 L12.5,5 L12.5,5.9375 C12.5,6.0234375 12.5703125,6.09375 12.65625,6.09375 L13.75,6.09375 C13.8359375,6.09375 13.90625,6.0234375 13.90625,5.9375 L13.90625,5 L16.40625,5 L16.40625,16.40625 Z M12.4902344,8.0859375 L11.6113281,8.0859375 C11.5527344,8.0859375 11.4980469,8.11914062 11.4726562,8.171875 L10.0390625,11.0117188 L9.984375,11.0117188 L8.55078125,8.171875 C8.5234375,8.11914062 8.47070312,8.0859375 8.41210937,8.0859375 L7.51367187,8.0859375 C7.48828125,8.0859375 7.4609375,8.09179688 7.43945312,8.10546875 C7.36328125,8.14648438 7.3359375,8.2421875 7.37695312,8.31835938 L9.12109375,11.5214844 L8.171875,11.5214844 C8.0859375,11.5214844 8.015625,11.5917969 8.015625,11.6777344 L8.015625,12.09375 C8.015625,12.1796875 8.0859375,12.25 8.171875,12.25 L9.44335937,12.25 L9.44335937,12.9082031 L8.171875,12.9082031 C8.0859375,12.9082031 8.015625,12.9785156 8.015625,13.0644531 L8.015625,13.4804688 C8.015625,13.5664062 8.0859375,13.6367188 8.171875,13.6367188 L9.44335937,13.6367188 L9.44335937,14.6875 C9.44335937,14.7734375 9.51367187,14.84375 9.59960937,14.84375 L10.40625,14.84375 C10.4921875,14.84375 10.5625,14.7734375 10.5625,14.6875 L10.5625,13.6367188 L11.8398437,13.6367188 C11.9257812,13.6367188 11.9960937,13.5664062 11.9960937,13.4804688 L11.9960937,13.0644531 C11.9960937,12.9785156 11.9257812,12.9082031 11.8398437,12.9082031 L10.5625,12.9082031 L10.5625,12.25 L11.8398437,12.25 C11.9257812,12.25 11.9960937,12.1796875 11.9960937,12.09375 L11.9960937,11.6777344 C11.9960937,11.5917969 11.9257812,11.5214844 11.8398437,11.5214844 L10.8808594,11.5214844 L12.625,8.31640625 C12.6367187,8.29296875 12.6445721,8.26757813 12.6445721,8.2421875 C12.6464844,8.15625 12.578125,8.0859375 12.4902344,8.0859375 L12.4902344,8.0859375 Z" id="形状" fill="#D53829"></path>
            </g>
        </g>
    </g>
</svg>