<?xml version="1.0" encoding="UTF-8"?>
<svg width="17px" height="16px" viewBox="0 0 17 16" version="1.1" xmlns="http://www.w3.org/2000/svg" xmlns:xlink="http://www.w3.org/1999/xlink">
    <!-- Generator: Sketch 60 (88103) - https://sketch.com -->
    <title>页头我的业绩</title>
    <desc>Created with Sketch.</desc>
    <g id="页面-1" stroke="none" stroke-width="1" fill="none" fill-rule="evenodd">
        <g id="工作台_驾驶舱（支行）" transform="translate(-650.000000, -271.000000)" fill="#D53829" fill-rule="nonzero">
            <g id="页头我的业绩" transform="translate(650.000000, 271.000000)">
                <path d="M8.836372,6.54546152 C8.67273546,6.54546152 8.50909857,6.46364334 8.4272811,6.38182498 L6.30000909,4.09091802 L4.33637204,5.7272834 C4.09091785,5.97273759 3.68182518,5.97273759 3.43637099,5.64546505 C3.27273445,5.40001085 3.27273445,5.07273743 3.51818917,4.82728148 L5.97273109,2.86364443 C6.21818528,2.61819023 6.62727795,2.70000789 6.79091466,2.94546278 L8.91818667,5.23636975 L12.027286,2.78182783 C12.2727402,2.53637364 12.6818328,2.61819129 12.927287,2.86364618 C13.1727412,3.10910038 13.0909236,3.51819304 12.8454689,3.76364723 L9.32729093,6.62728533 C9.16365439,6.54546715 9.0000175,6.54546715 8.83638079,6.54546697 L8.836372,6.54546152 Z M14.5636482,15.672744 L1.47272867,15.672744 C0.654545098,15.672744 1.95399252e-14,15.0181971 1.95399252e-14,14.2000153 L1.95399252e-14,1.47272867 C1.95399252e-14,0.654545098 0.654546855,-8.97060204e-14 1.47272867,-8.97060204e-14 L14.5636482,-8.97060204e-14 C15.3818318,-8.97060204e-14 16.0363769,0.654546855 16.0363769,1.47272867 L16.0363769,14.2000153 C16.0363769,15.0181989 15.38183,15.672744 14.5636482,15.672744 Z M1.47272867,1.3090902 C1.39091049,1.3090902 1.30909213,1.39090838 1.30909213,1.47272673 L1.30909213,14.2000134 C1.30909213,14.2818316 1.39091049,14.3636499 1.47272867,14.3636499 L14.5636482,14.3636499 C14.6454664,14.3636499 14.7272847,14.2818318 14.7272847,14.2000134 L14.7272847,1.47272673 C14.7272847,1.39090838 14.6454666,1.3090902 14.5636482,1.3090902 L1.47272867,1.3090902 Z M11.7000101,13.4000097 C11.3727367,13.4000097 11.0454632,13.2022081 11.0454632,12.8725369 L11.0454632,7.92748256 C11.0454632,7.66374614 11.2909174,7.40000973 11.7000101,7.40000973 C12.109101,7.40000973 12.354557,7.59781133 12.354557,7.92748256 L12.354557,12.8725369 C12.2727388,13.1362733 12.0272835,13.4000097 11.7000101,13.4000097 Z M9.24546818,13.4000097 C8.91819475,13.4000097 8.59092132,13.2181919 8.59092132,12.9151605 L8.59092132,9.884859 C8.59092132,9.64243436 8.83637552,9.40000973 9.24546818,9.40000973 C9.65455909,9.40000973 9.90001504,9.58182755 9.90001504,9.884859 L9.90001504,12.9151605 C9.81819685,13.1575851 9.57274161,13.4000097 9.24546818,13.4000097 Z M6.79092626,13.4000097 C6.46365283,13.4000097 6.13637941,13.2214388 6.13637941,12.9238188 L6.13637941,8.87620069 C6.13637941,8.63810521 6.3818336,8.40000973 6.79092626,8.40000973 C7.20001717,8.40000973 7.44547312,8.5785807 7.44547312,8.87620069 L7.44547312,12.9238188 C7.36365494,13.1619142 7.11819969,13.4000097 6.79092626,13.4000097 Z M4.33638434,13.4000097 C4.00911092,13.4000097 3.68183749,13.2301988 3.68183749,12.9471789 L3.68183749,10.8528406 C3.68183749,10.6264251 3.92729168,10.4000097 4.33638434,10.4000097 C4.74547525,10.4000097 4.9909312,10.5698207 4.9909312,10.8528406 L4.9909312,12.9471789 C4.90911302,13.1735943 4.66365777,13.4000097 4.33638434,13.4000097 Z" id="形状"></path>
            </g>
        </g>
    </g>
</svg>