<?xml version="1.0" encoding="UTF-8"?>
<svg width="17px" height="17px" viewBox="0 0 17 17" version="1.1" xmlns="http://www.w3.org/2000/svg" xmlns:xlink="http://www.w3.org/1999/xlink">
    <!-- Generator: Sketch 60 (88103) - https://sketch.com -->
    <title>packing-labeling</title>
    <desc>Created with Sketch.</desc>
    <g id="页面-1" stroke="none" stroke-width="1" fill="none" fill-rule="evenodd">
        <g id="工作台_驾驶舱（支行）" transform="translate(-244.000000, -1509.000000)" fill-rule="nonzero">
            <g id="packing-labeling" transform="translate(241.000000, 1506.000000)">
                <rect id="矩形" fill="#000000" opacity="0" x="0" y="0" width="23" height="23"></rect>
                <path d="M16.3946875,12.811 L19.8734375,16.28975 L16.3946875,19.7685 L15.3510625,18.724875 L17.0578542,17.0180833 L12.4894792,17.0176042 L12.4894792,15.5417708 L17.0382083,15.5417708 L15.3515417,13.854625 L16.3946875,12.811 L16.3946875,12.811 Z M16.4747083,3.83333334 C17.0191062,3.83333334 17.5167852,4.14089997 17.7603125,4.62779166 L19.0147708,7.13622916 C19.1146459,7.33587454 19.1666667,7.5560371 19.1666667,7.77927084 L19.1666667,11.8521875 L17.7291667,11.8521875 L17.7291667,8.625 L5.27083334,8.625 L5.27083334,17.7291667 L11.5,17.7291667 L11.5,19.1666667 L5.27083334,19.1666667 C4.47692401,19.1666667 3.83333334,18.523076 3.83333334,17.7291667 L3.83333334,7.8961875 C3.83333334,7.67961884 3.88235326,7.46585898 3.97660416,7.270875 L5.24495834,4.64504166 C5.48499252,4.14865098 5.98780731,3.83333334 6.5391875,3.83333334 L16.4747083,3.83333334 Z M10.5416667,10.0625 L10.5416667,11.5 L6.70833334,11.5 L6.70833334,10.0625 L10.5416667,10.0625 Z M6.5391875,5.27083334 L5.61295834,7.1875 L17.4335208,7.1875 L16.4747083,5.27083334 L6.5391875,5.27083334 L6.5391875,5.27083334 Z" id="形状" fill="#D53829"></path>
            </g>
        </g>
    </g>
</svg>